<?xml version="1.0" standalone="no"?>
<!DOCTYPE svg PUBLIC "-//W3C//DTD SVG 20010904//EN"
 "http://www.w3.org/TR/2001/REC-SVG-20010904/DTD/svg10.dtd">
<svg version="1.0" xmlns="http://www.w3.org/2000/svg"
 width="1024.000000pt" height="1024.000000pt" viewBox="0 0 1024.000000 1024.000000"
 preserveAspectRatio="xMidYMid meet">
<metadata>
Created by potrace 1.14, written by Peter Selinger 2001-2017
</metadata>
<g transform="translate(0.000000,1024.000000) scale(0.100000,-0.100000)"
fill="#000000" stroke="none">
<path d="M4870 7953 c-33 -3 -167 -22 -200 -28 -458 -94 -840 -259 -1160 -498
-98 -74 -339 -306 -427 -412 -200 -241 -350 -485 -442 -718 -82 -207 -146
-467 -166 -672 -3 -33 -8 -76 -11 -95 -8 -47 -7 -340 1 -470 6 -94 27 -232 54
-361 20 -93 94 -296 155 -423 185 -388 468 -750 771 -985 381 -297 836 -492
1280 -550 44 -6 103 -13 130 -17 77 -10 428 -11 540 -3 538 43 1122 289 1514
637 81 73 209 203 267 272 349 418 548 851 604 1315 6 50 13 108 16 130 6 53
6 352 -1 440 -28 363 -112 665 -270 975 -280 547 -674 940 -1198 1195 -301
146 -602 234 -895 260 -73 7 -497 13 -562 8z m510 -267 c14 -2 54 -7 90 -11
152 -15 391 -78 572 -151 545 -218 998 -643 1263 -1184 86 -176 164 -418 194
-605 7 -38 14 -83 17 -100 19 -111 25 -401 11 -549 -16 -179 -67 -401 -133
-581 -83 -222 -268 -536 -416 -705 -342 -390 -776 -650 -1283 -770 -114 -27
-145 -33 -240 -45 -22 -3 -71 -9 -110 -15 -38 -5 -80 -10 -92 -10 l-23 0 0
749 0 750 58 6 c288 34 584 174 789 376 289 285 467 646 518 1054 4 28 9 61
11 75 2 14 4 99 4 190 0 258 -29 410 -111 577 -86 179 -250 321 -419 364 -56
14 -81 26 -98 46 -70 84 -105 104 -177 105 -101 2 -207 -98 -207 -196 0 -57
15 -88 63 -140 44 -48 89 -69 149 -68 41 1 111 31 148 65 21 19 25 20 60 7 90
-32 220 -147 278 -246 37 -64 71 -167 88 -270 15 -89 16 -442 1 -524 -41 -226
-76 -342 -151 -496 -140 -287 -399 -529 -688 -644 -154 -61 -267 -83 -416 -84
-150 -1 -246 19 -431 89 -230 88 -425 246 -569 462 -162 242 -239 453 -270
745 -28 264 4 572 75 722 49 104 151 194 280 246 l56 23 33 -32 c123 -119 316
-30 330 152 4 49 -18 99 -62 140 -86 82 -235 65 -293 -34 -24 -42 -28 -45 -91
-56 -172 -31 -345 -176 -438 -368 -49 -101 -76 -207 -93 -360 -73 -695 197
-1346 698 -1680 210 -141 479 -245 630 -245 l35 0 1 -127 c4 -643 3 -1363 -3
-1369 -20 -19 -418 50 -601 106 -486 147 -918 445 -1229 851 -144 187 -263
405 -347 635 -32 87 -86 300 -96 379 -4 28 -9 61 -12 75 -9 46 -11 444 -3 520
42 360 122 627 276 920 105 199 203 331 372 504 239 243 425 378 714 516 212
101 381 152 663 201 150 26 174 27 380 23 121 -2 231 -6 245 -8z"/>
<path d="M4847 6725 c-22 -7 -33 -19 -39 -40 -5 -16 -6 -141 -3 -277 6 -264 7
-256 -37 -249 -47 7 -482 -1 -498 -9 -11 -6 -23 -22 -26 -37 -4 -14 -7 -146
-8 -292 -1 -244 1 -268 18 -293 l18 -28 264 0 264 0 1 -72 c1 -139 9 -323 14
-374 11 -91 -6 -87 306 -85 245 1 276 3 291 19 15 15 18 49 23 262 4 135 7
246 8 246 1 1 115 5 252 8 138 3 264 11 281 16 40 14 40 11 42 312 1 271 -2
304 -29 319 -18 9 -221 17 -455 19 l-101 0 1 265 c1 229 -1 266 -15 280 -13
14 -54 16 -279 18 -156 1 -275 -2 -293 -8z"/>
</g>
</svg>
